<svg width="339" height="50" viewBox="0 0 339 50" fill="none" xmlns="http://www.w3.org/2000/svg">
<g clip-path="url(#clip0_1_44)">
<g filter="url(#filter0_i_1_44)">
<path d="M50 0C25.7879 0 5.59527 17.2096 0.987265 40.0638C-0.104317 45.4777 4.47715 50 10 50H90C95.5228 50 100.104 45.4777 99.0127 40.0638C94.4047 17.2096 74.2121 0 50 0Z" fill="#FFB342"/>
</g>
<path d="M142.992 33.736C142.992 35.784 142.528 37.528 141.6 38.968C140.672 40.408 139.344 41.528 137.616 42.328C135.888 43.096 133.776 43.48 131.28 43.48C130.064 43.48 128.896 43.4 127.776 43.24C126.688 43.112 125.68 42.92 124.752 42.664C123.856 42.408 123.008 42.088 122.208 41.704V36.808C123.488 37.384 124.944 37.912 126.576 38.392C128.24 38.84 129.888 39.064 131.52 39.064C132.928 39.064 134.08 38.856 134.976 38.44C135.904 38.024 136.592 37.448 137.04 36.712C137.52 35.976 137.76 35.112 137.76 34.12C137.76 33.064 137.52 32.184 137.04 31.48C136.592 30.744 135.84 30.072 134.784 29.464C133.76 28.824 132.384 28.168 130.656 27.496C129.44 26.984 128.336 26.44 127.344 25.864C126.352 25.256 125.488 24.552 124.752 23.752C124.048 22.952 123.504 22.024 123.12 20.968C122.768 19.912 122.592 18.68 122.592 17.272C122.592 15.384 123.04 13.768 123.936 12.424C124.832 11.08 126.08 10.056 127.68 9.352C129.28 8.616 131.152 8.248 133.296 8.248C135.088 8.248 136.736 8.44 138.24 8.824C139.744 9.176 141.168 9.672 142.512 10.312L140.832 14.584C139.584 14.04 138.32 13.592 137.04 13.24C135.792 12.888 134.496 12.712 133.152 12.712C131.968 12.712 130.976 12.904 130.176 13.288C129.408 13.672 128.832 14.2 128.448 14.872C128.064 15.544 127.872 16.328 127.872 17.224C127.872 18.28 128.096 19.16 128.544 19.864C128.992 20.568 129.712 21.224 130.704 21.832C131.696 22.408 133.008 23.048 134.64 23.752C136.432 24.52 137.952 25.336 139.2 26.2C140.448 27.032 141.392 28.056 142.032 29.272C142.672 30.456 142.992 31.944 142.992 33.736ZM169.943 17.128V43H165.863L165.143 39.592H164.855C164.375 40.488 163.719 41.224 162.887 41.8C162.087 42.376 161.207 42.792 160.247 43.048C159.287 43.336 158.295 43.48 157.271 43.48C155.383 43.48 153.783 43.16 152.471 42.52C151.191 41.848 150.199 40.824 149.495 39.448C148.823 38.04 148.487 36.248 148.487 34.072V17.128H153.719V33.304C153.719 35.32 154.103 36.824 154.871 37.816C155.639 38.808 156.839 39.304 158.471 39.304C160.071 39.304 161.319 38.952 162.215 38.248C163.143 37.544 163.799 36.52 164.183 35.176C164.567 33.8 164.759 32.152 164.759 30.232V17.128H169.943ZM189.898 16.648C192.714 16.648 194.874 17.4 196.378 18.904C197.914 20.408 198.682 22.824 198.682 26.152V43H193.498V26.872C193.498 24.856 193.098 23.352 192.298 22.36C191.53 21.336 190.33 20.824 188.698 20.824C186.298 20.824 184.65 21.608 183.754 23.176C182.858 24.744 182.41 27 182.41 29.944V43H177.226V17.128H181.306L182.026 20.584H182.314C182.858 19.688 183.514 18.952 184.282 18.376C185.05 17.8 185.914 17.368 186.874 17.08C187.834 16.792 188.842 16.648 189.898 16.648ZM244.7 8.728L236.3 43H230.54L225.116 21.832C224.956 21.256 224.796 20.616 224.636 19.912C224.476 19.208 224.316 18.52 224.156 17.848C224.028 17.144 223.9 16.52 223.772 15.976C223.676 15.432 223.612 15.016 223.58 14.728C223.548 15.016 223.468 15.432 223.34 15.976C223.244 16.52 223.132 17.144 223.004 17.848C222.876 18.52 222.732 19.224 222.572 19.96C222.412 20.664 222.252 21.336 222.092 21.976L216.764 43H211.004L202.604 8.728H207.98L212.588 28.984C212.748 29.688 212.908 30.408 213.068 31.144C213.228 31.88 213.372 32.616 213.5 33.352C213.628 34.088 213.74 34.808 213.836 35.512C213.964 36.184 214.06 36.808 214.124 37.384C214.22 36.776 214.316 36.12 214.412 35.416C214.54 34.712 214.668 33.992 214.796 33.256C214.956 32.488 215.116 31.736 215.276 31C215.468 30.264 215.644 29.576 215.804 28.936L220.94 8.728H226.172L231.5 29.08C231.66 29.72 231.82 30.408 231.98 31.144C232.14 31.88 232.3 32.632 232.46 33.4C232.62 34.136 232.748 34.856 232.844 35.56C232.972 36.232 233.084 36.84 233.18 37.384C233.276 36.584 233.404 35.72 233.564 34.792C233.756 33.832 233.948 32.856 234.14 31.864C234.364 30.84 234.572 29.88 234.764 28.984L239.324 8.728H244.7ZM256.815 16.648C259.855 16.648 262.143 17.368 263.679 18.808C265.247 20.216 266.031 22.44 266.031 25.48V43H262.335L261.327 39.4H261.135C260.399 40.328 259.663 41.096 258.927 41.704C258.223 42.312 257.391 42.76 256.431 43.048C255.503 43.336 254.351 43.48 252.975 43.48C251.535 43.48 250.239 43.208 249.087 42.664C247.935 42.088 247.023 41.224 246.351 40.072C245.679 38.888 245.343 37.416 245.343 35.656C245.343 33.032 246.271 31.032 248.127 29.656C250.015 28.28 252.879 27.528 256.719 27.4L260.847 27.256V25.816C260.847 23.896 260.447 22.552 259.647 21.784C258.879 21.016 257.791 20.632 256.383 20.632C255.199 20.632 254.031 20.824 252.879 21.208C251.727 21.592 250.607 22.056 249.519 22.6L247.935 18.904C249.119 18.264 250.463 17.736 251.967 17.32C253.503 16.872 255.119 16.648 256.815 16.648ZM257.727 30.664C255.103 30.792 253.279 31.288 252.255 32.152C251.231 32.984 250.719 34.168 250.719 35.704C250.719 37.048 251.071 38.024 251.775 38.632C252.511 39.24 253.455 39.544 254.607 39.544C256.367 39.544 257.839 38.984 259.023 37.864C260.239 36.744 260.847 35.064 260.847 32.824V30.568L257.727 30.664ZM282.347 39.352C283.019 39.352 283.675 39.288 284.315 39.16C284.955 39.032 285.515 38.888 285.995 38.728V42.568C285.451 42.824 284.731 43.032 283.835 43.192C282.971 43.384 282.059 43.48 281.099 43.48C279.755 43.48 278.523 43.24 277.403 42.76C276.283 42.28 275.387 41.448 274.715 40.264C274.043 39.08 273.707 37.432 273.707 35.32V21.016H270.395V18.712L273.947 16.792L275.723 11.32H278.939V17.128H285.803V21.016H278.939V35.224C278.939 36.632 279.259 37.672 279.899 38.344C280.539 39.016 281.355 39.352 282.347 39.352ZM300.836 43.48C298.564 43.48 296.564 43.016 294.836 42.088C293.14 41.16 291.812 39.72 290.852 37.768C289.924 35.784 289.46 33.272 289.46 30.232C289.46 27.032 289.972 24.44 290.996 22.456C292.02 20.472 293.412 19.016 295.172 18.088C296.932 17.128 298.948 16.648 301.22 16.648C302.564 16.648 303.844 16.808 305.06 17.128C306.308 17.416 307.332 17.752 308.132 18.136L306.548 22.216C305.748 21.896 304.884 21.608 303.956 21.352C303.028 21.096 302.148 20.968 301.316 20.968C299.844 20.968 298.628 21.32 297.668 22.024C296.74 22.696 296.036 23.72 295.556 25.096C295.076 26.44 294.836 28.136 294.836 30.184C294.836 32.136 295.076 33.784 295.556 35.128C296.036 36.472 296.74 37.496 297.668 38.2C298.628 38.872 299.78 39.208 301.124 39.208C302.436 39.208 303.604 39.048 304.628 38.728C305.684 38.408 306.66 37.992 307.556 37.48V41.896C306.66 42.44 305.684 42.84 304.628 43.096C303.572 43.352 302.308 43.48 300.836 43.48ZM318.348 16.264C318.348 17.064 318.316 17.864 318.252 18.664C318.22 19.464 318.172 20.12 318.108 20.632H318.396C318.908 19.736 319.532 19 320.268 18.424C321.036 17.848 321.884 17.416 322.812 17.128C323.772 16.84 324.748 16.696 325.74 16.696C327.628 16.696 329.228 17.032 330.54 17.704C331.884 18.344 332.892 19.368 333.564 20.776C334.268 22.152 334.62 23.944 334.62 26.152V43H329.388V26.872C329.388 24.856 329.004 23.352 328.236 22.36C327.468 21.336 326.268 20.824 324.636 20.824C323.068 20.824 321.82 21.176 320.892 21.88C319.964 22.584 319.308 23.624 318.924 25C318.54 26.344 318.348 28.008 318.348 29.992V43H313.164V6.52H318.348V16.264Z" fill="#000000"/>
<path d="M61 13L50 40L81 33" stroke="#1E1E1E" stroke-width="6"/>
</g>
<defs>
<filter id="filter0_i_1_44" x="0.825241" y="0" width="98.3495" height="54" filterUnits="userSpaceOnUse" color-interpolation-filters="sRGB">
<feFlood flood-opacity="0" result="BackgroundImageFix"/>
<feBlend mode="normal" in="SourceGraphic" in2="BackgroundImageFix" result="shape"/>
<feColorMatrix in="SourceAlpha" type="matrix" values="0 0 0 0 0 0 0 0 0 0 0 0 0 0 0 0 0 0 127 0" result="hardAlpha"/>
<feOffset dy="4"/>
<feGaussianBlur stdDeviation="25"/>
<feComposite in2="hardAlpha" operator="arithmetic" k2="-1" k3="1"/>
<feColorMatrix type="matrix" values="0 0 0 0 0.684219 0 0 0 0 1 0 0 0 0 0.270833 0 0 0 0.5 0"/>
<feBlend mode="normal" in2="shape" result="effect1_innerShadow_1_44"/>
</filter>
<clipPath id="clip0_1_44">
<rect width="339" height="50" fill="white"/>
</clipPath>
</defs>
</svg>
